<?xml version="1.0" encoding="UTF-8"?>
<svg xmlns="http://www.w3.org/2000/svg" version="1.1" width="512" height="512" viewBox="0 0 512 512"><rect x="0" y="0" width="512" height="512" fill="#ffffff"/><g transform="scale(24.381)"><g transform="translate(0,0)"><path fill-rule="evenodd" d="M9 0L9 2L8 2L8 3L9 3L9 4L10 4L10 5L11 5L11 4L12 4L12 7L11 7L11 6L10 6L10 7L9 7L9 6L8 6L8 8L4 8L4 9L3 9L3 8L0 8L0 9L1 9L1 10L0 10L0 13L1 13L1 11L2 11L2 13L4 13L4 12L3 12L3 11L8 11L8 17L9 17L9 18L8 18L8 21L9 21L9 20L11 20L11 21L14 21L14 20L11 20L11 19L10 19L10 17L11 17L11 18L12 18L12 19L16 19L16 21L18 21L18 20L17 20L17 19L19 19L19 21L21 21L21 20L20 20L20 19L21 19L21 18L20 18L20 17L19 17L19 18L17 18L17 16L16 16L16 17L14 17L14 16L13 16L13 15L12 15L12 13L13 13L13 14L14 14L14 15L17 15L17 14L18 14L18 15L19 15L19 14L18 14L18 13L19 13L19 12L18 12L18 13L17 13L17 11L19 11L19 10L20 10L20 11L21 11L21 9L19 9L19 8L18 8L18 10L17 10L17 9L15 9L15 8L13 8L13 4L12 4L12 3L13 3L13 2L12 2L12 1L13 1L13 0L11 0L11 1L10 1L10 0ZM10 2L10 4L11 4L11 2ZM10 7L10 8L11 8L11 7ZM12 8L12 9L11 9L11 10L10 10L10 9L9 9L9 10L8 10L8 9L5 9L5 10L8 10L8 11L11 11L11 13L10 13L10 12L9 12L9 13L10 13L10 14L9 14L9 15L10 15L10 14L11 14L11 13L12 13L12 12L13 12L13 13L15 13L15 14L16 14L16 13L15 13L15 12L16 12L16 11L12 11L12 10L13 10L13 8ZM2 9L2 10L3 10L3 9ZM14 9L14 10L15 10L15 9ZM6 12L6 13L7 13L7 12ZM20 12L20 16L21 16L21 12ZM9 16L9 17L10 17L10 16ZM12 16L12 18L13 18L13 16ZM19 18L19 19L20 19L20 18ZM0 0L0 7L7 7L7 0ZM1 1L1 6L6 6L6 1ZM2 2L2 5L5 5L5 2ZM14 0L14 7L21 7L21 0ZM15 1L15 6L20 6L20 1ZM16 2L16 5L19 5L19 2ZM0 14L0 21L7 21L7 14ZM1 15L1 20L6 20L6 15ZM2 16L2 19L5 19L5 16Z" fill="#000000"/></g></g></svg>
