<?xml version="1.0" encoding="UTF-8"?>
<svg xmlns="http://www.w3.org/2000/svg" version="1.1" width="512" height="512" viewBox="0 0 512 512"><rect x="0" y="0" width="512" height="512" fill="#ffffff"/><g transform="scale(24.381)"><g transform="translate(0,0)"><path fill-rule="evenodd" d="M8 0L8 2L9 2L9 0ZM11 0L11 1L10 1L10 2L11 2L11 3L12 3L12 4L8 4L8 9L9 9L9 6L10 6L10 7L11 7L11 8L10 8L10 10L9 10L9 11L8 11L8 10L6 10L6 9L7 9L7 8L5 8L5 10L4 10L4 9L3 9L3 8L0 8L0 11L1 11L1 12L2 12L2 13L7 13L7 12L9 12L9 11L10 11L10 12L11 12L11 9L12 9L12 11L13 11L13 13L12 13L12 15L11 15L11 17L12 17L12 19L13 19L13 20L12 20L12 21L14 21L14 18L13 18L13 17L14 17L14 15L15 15L15 14L16 14L16 16L15 16L15 17L16 17L16 19L15 19L15 20L16 20L16 21L17 21L17 20L18 20L18 19L17 19L17 17L16 17L16 16L18 16L18 15L19 15L19 16L21 16L21 8L19 8L19 9L17 9L17 8L12 8L12 7L13 7L13 6L12 6L12 4L13 4L13 2L11 2L11 1L13 1L13 0ZM10 5L10 6L11 6L11 7L12 7L12 6L11 6L11 5ZM2 9L2 10L1 10L1 11L2 11L2 12L3 12L3 9ZM14 9L14 10L15 10L15 11L14 11L14 13L13 13L13 15L12 15L12 17L13 17L13 15L14 15L14 14L15 14L15 13L16 13L16 12L17 12L17 11L18 11L18 12L19 12L19 11L18 11L18 10L17 10L17 11L16 11L16 9ZM19 9L19 10L20 10L20 9ZM5 10L5 11L4 11L4 12L7 12L7 11L6 11L6 10ZM15 11L15 12L16 12L16 11ZM8 13L8 14L9 14L9 15L8 15L8 16L9 16L9 18L8 18L8 21L9 21L9 20L10 20L10 21L11 21L11 20L10 20L10 19L9 19L9 18L10 18L10 16L9 16L9 15L10 15L10 14L11 14L11 13L10 13L10 14L9 14L9 13ZM17 13L17 14L19 14L19 13ZM19 18L19 19L21 19L21 18ZM16 19L16 20L17 20L17 19ZM20 20L20 21L21 21L21 20ZM0 0L0 7L7 7L7 0ZM1 1L1 6L6 6L6 1ZM2 2L2 5L5 5L5 2ZM14 0L14 7L21 7L21 0ZM15 1L15 6L20 6L20 1ZM16 2L16 5L19 5L19 2ZM0 14L0 21L7 21L7 14ZM1 15L1 20L6 20L6 15ZM2 16L2 19L5 19L5 16Z" fill="#000000"/></g></g></svg>
